<?xml version="1.0" encoding="utf-8"?>
<svg xmlns="http://www.w3.org/2000/svg" height="48px" viewBox="0 -960 960 960" width="48px" fill="#FFFFFF">
  <g id="Layer_2" transform="matrix(18.386274, -0.004319, 0.004132, 17.590906, -436.051978, 8.103295)" style="transform-origin: 916.048px -488.096px;">
    <g id="Layer_1-2" data-name="Layer 1" transform="matrix(1, 0, 0, 1, 895.148193, -513.098267)">
      <path class="cls-1" d="M40.9,38.97c-.75,1.75-1.64,3.35-2.67,4.83-1.4,2.02-2.55,3.41-3.43,4.19-1.37,1.27-2.84,1.92-4.41,1.96-1.13,0-2.49-.32-4.08-.98-1.59-.65-3.05-.98-4.39-.98s-2.91.32-4.51.98c-1.61.66-2.91,1-3.9,1.03-1.51.06-3.01-.6-4.51-2.01-.96-.84-2.16-2.29-3.59-4.33-1.54-2.19-2.81-4.72-3.8-7.61-1.06-3.12-1.6-6.14-1.6-9.07,0-3.35.72-6.24,2.16-8.66,1.13-1.95,2.63-3.48,4.52-4.61,1.88-1.13,3.92-1.7,6.11-1.74,1.2,0,2.77.37,4.72,1.11,1.95.74,3.2,1.11,3.75,1.11.41,0,1.8-.44,4.15-1.31,2.23-.81,4.11-1.14,5.65-1.01,4.17.34,7.31,2,9.39,4.99-3.73,2.28-5.58,5.47-5.54,9.57.03,3.19,1.18,5.85,3.44,7.95,1.02.98,2.16,1.73,3.43,2.27-.28.81-.57,1.58-.88,2.32h0ZM31.33,1c0,2.5-.91,4.84-2.71,7-2.18,2.57-4.82,4.05-7.67,3.82-.04-.3-.06-.62-.06-.95,0-2.4,1.04-4.97,2.88-7.07.92-1.06,2.09-1.95,3.51-2.65,1.41-.69,2.75-1.08,4.01-1.15.04.33.05.67.05,1h0Z" style="fill: rgb(255, 255, 255);"/>
    </g>
  </g>
</svg>