<?xml version="1.0" encoding="utf-8"?>
<svg xmlns="http://www.w3.org/2000/svg" height="48px" viewBox="0 -960 960 960" width="48px" fill="#FFFFFF">
  <path d="M 32.468 -32.464 L 32.468 -92.214 L 137.771 -92.214 L 137.771 -851.61 C 137.771 -872.27 145.265 -890.09 160.252 -905.06 C 175.24 -920.06 193.059 -927.54 213.706 -927.54 L 746.299 -927.54 C 766.945 -927.54 784.761 -920.06 799.749 -905.06 C 814.747 -890.09 822.236 -872.27 822.236 -851.61 L 822.236 -92.214 L 927.532 -92.214 L 927.532 -32.464 L 32.468 -32.464 Z M 762.491 -92.214 L 762.491 -851.61 C 762.491 -855.66 760.809 -859.37 757.434 -862.74 C 754.06 -866.12 750.344 -867.8 746.299 -867.8 L 213.706 -867.8 C 209.66 -867.8 205.948 -866.12 202.571 -862.74 C 199.201 -859.37 197.516 -855.66 197.516 -851.61 L 197.516 -92.214 L 762.491 -92.214 Z M 598.063 -442.25 C 609.732 -442.25 619.425 -446.11 627.163 -453.84 C 634.9 -461.58 638.775 -471.28 638.775 -482.94 C 638.775 -494.62 634.9 -504.32 627.163 -512.05 C 619.425 -519.79 609.732 -523.64 598.063 -523.64 C 586.394 -523.64 576.702 -519.79 568.953 -512.05 C 561.225 -504.32 557.362 -494.62 557.362 -482.94 C 557.362 -471.28 561.225 -461.58 568.953 -453.84 C 576.702 -446.11 586.394 -442.25 598.063 -442.25 Z M 197.516 -867.8 L 197.516 -92.214 L 197.516 -867.8 Z" style="stroke-width: 1;"/>
</svg>